<svg version="1.1" xmlns="http://www.w3.org/2000/svg" xmlns:xlink="http://www.w3.org/1999/xlink" x="0px" y="0px" viewBox="0 0 3000 3000"><ellipse opacity="0.3" cx="1400.4" cy="2615.2" rx="472.8" ry="130.6"></ellipse><g transform="matrix(-2.9166107177734375, 0, 0, 2.9166107177734375, 1880.95,1719.3)"><g transform="matrix(1, 0, 0, 1, 0, 0)"><path fill="#707070" d="M15.6,43.5c-6,16-10,32.3-12.1,49.1c-0.7,5.4-1.3,10.8-1.9,16.1c-0.9,6.2,0.5,13.1,4.2,20.7 c3.4,6,8,12,13.5,17.8c5.6,5.9,10.8,8.9,15.5,8.9c4.8,0,10-2.7,15.8-8.1c5.4-5,9.3-9.5,11.9-13.5c4-6.2,6.3-12.2,7-18.1 c1.2-14,3.8-28.1,7.7-42.3c3.9-14.2,12.5-29.8,25.9-46.8L49.7,0C33.7,10.8,22.4,25.3,15.6,43.5z"></path><path d="M34.8,161.1C34.8,161.1,34.8,161,34.8,161.1c6.2,0,12.5-3.1,19.2-9.4c5.7-5.3,9.9-10,12.7-14.4c4.4-6.8,7-13.6,7.8-20.2c0-0.1,0-0.1,0-0.2c1.2-13.6,3.7-27.6,7.5-41.5c3.7-13.5,12.1-28.7,25-45.1c1.7-2.2,1.3-5.3-0.8-7c-2.2-1.7-5.3-1.3-7,0.8C85.5,41.6,76.5,57.9,72.4,72.7c-3.9,14.5-6.5,29-7.8,43.1c-0.6,5-2.7,10.4-6.3,15.9c-2.4,3.7-6.1,7.9-11.1,12.5c-4.7,4.4-9,6.7-12.4,6.7c0,0,0,0,0,0c-3.3,0-7.4-2.5-11.9-7.3c-5.3-5.5-9.5-11.2-12.8-16.8c-3.2-6.6-4.4-12.5-3.7-17.6c0-0.1,0-0.1,0-0.2c0.6-5.3,1.2-10.7,1.9-16.1c2.1-16.3,6.1-32.4,11.9-48c6.4-17.1,17.2-30.9,32.3-41.1c2.3-1.5,2.9-4.7,1.3-6.9c-1.5-2.3-4.7-2.9-6.9-1.3C30.1,7.2,18,22.7,10.9,41.7C4.8,58,0.7,74.8-1.5,91.9c-0.7,5.4-1.3,10.8-1.9,16.1c-1.1,7.1,0.5,15,4.7,23.5c0,0.1,0.1,0.2,0.1,0.3c3.6,6.3,8.4,12.7,14.3,18.8C22.3,157.7,28.5,161,34.8,161.1z M5.7,129.4L5.7,129.4L5.7,129.4z"></path></g></g><g transform="matrix(-2.9166107177734375, 0, 0, 2.9166107177734375, 1880.95,1719.3)"><g transform="matrix( 1, 0, 0, 1, 0,0) "><path d="M34.8,161.1C34.8,161.1,34.8,161,34.8,161.1c6.2,0,12.5-3.1,19.2-9.4c5.7-5.3,9.9-10,12.7-14.4c4.4-6.8,7-13.6,7.8-20.2c0-0.1,0-0.1,0-0.2c1.2-13.6,3.7-27.6,7.5-41.5c3.7-13.5,12.1-28.7,25-45.1c1.7-2.2,1.3-5.3-0.8-7c-2.2-1.7-5.3-1.3-7,0.8C85.5,41.6,76.5,57.9,72.4,72.7c-3.9,14.5-6.5,29-7.8,43.1c-0.6,5-2.7,10.4-6.3,15.9c-2.4,3.7-6.1,7.9-11.1,12.5c-4.7,4.4-9,6.7-12.4,6.7c0,0,0,0,0,0c-3.3,0-7.4-2.5-11.9-7.3c-5.3-5.5-9.5-11.2-12.8-16.8c-3.2-6.6-4.4-12.5-3.7-17.6c0-0.1,0-0.1,0-0.2c0.6-5.3,1.2-10.7,1.9-16.1c2.1-16.3,6.1-32.4,11.9-48c6.4-17.1,17.2-30.9,32.3-41.1c2.3-1.5,2.9-4.7,1.3-6.9c-1.5-2.3-4.7-2.9-6.9-1.3C30.1,7.2,18,22.7,10.9,41.7C4.8,58,0.7,74.8-1.5,91.9c-0.7,5.4-1.3,10.8-1.9,16.1c-1.1,7.1,0.5,15,4.7,23.5c0,0.1,0.1,0.2,0.1,0.3c3.6,6.3,8.4,12.7,14.3,18.8C22.3,157.7,28.5,161,34.8,161.1z M5.7,129.4L5.7,129.4L5.7,129.4z"></path></g></g><g transform="matrix(2.9166107177734375, 0, 0, 2.9166107177734375, 468.15,1761.65)"><g transform="matrix(1, 0, 0, 1, 0, 0)"><path fill="#707070" d="M240.4,104.4c-0.7-0.2-2.8-0.2-6.2-0.1c-4.9,0-9-0.1-12.2-0.2c-13.4-0.5-26.4-2.4-39-5.8 c-17.4-4.7-34.2-12.3-50.5-23c-5.3-3.5-10.3-7.1-14.8-10.7c-0.1-0.1-0.2-0.2-0.3-0.3c-3.4-2.8-5.6-4.8-6.6-6.1 c1,1.2,3.2,3.2,6.6,6.1c0.1,0.1,0.2,0.2,0.3,0.3c0.3-1.4,0.9-3.7,1.7-6.8c1.5-5.8,4.5-10.9,9-15.3c3.3-3.3,7.7-6.4,13.2-9.5 c3-1.7,7.2-3.9,12.6-6.6c3.8-2.3,6-4.6,6.6-6.8c1.1-4-0.7-7.7-5.3-11.3c-3.8-3-8.7-5.2-14.5-6.7c-6.6-1.8-13.5-2-20.8-0.7 c-7,1.2-13.6,3.7-19.9,7.4c-6.2,3.7-11.4,8.1-15.7,13.4c-4.4,5.6-7.3,11.5-8.5,17.6l-0.3,1c3.3,1.2,6.8,2.6,10.3,4.2 c-3.6-1.6-7-3-10.3-4.2C42.2,28.5,18.4,38.4,3.9,70.2C0.7,79-0.6,85.4,0.2,89.2c0.9,4.3,2.6,6.8,5.2,7.5 c1.6,0.4,4.5-0.1,8.6-1.4c2.6-0.8,7.1-2.4,13.6-4.7c13.8-4.3,26.1-5,36.8-2.2c4.4,1.2,8.3,3.3,11.8,6.4 c2.7,2.4,5.9,6.2,9.5,11.3c2.1,3,5.7,8.2,10.8,15.7c5.1,6.8,10.4,13.2,16.1,19c8.8,9.1,16.8,16.5,23.9,22.2 c10.4,8.2,21.2,14.9,32.5,19.9c9.5,4.2,21.7,9.5,36.7,15.8c2.6,1,4.8,2,6.6,2.9c1.5-1.1,2.9-2.1,4.3-3.2 c7.2-5.6,13.2-11.4,17.9-17.7c6.5-8.5,11.3-18.5,14.4-30.1c2.8-10.6,2.9-21.1,0.3-31.3c-1-4.1-2.4-7.6-4.2-10.4 C243.6,106.4,242,104.8,240.4,104.4z"></path><path d="M212.3,206.8c-0.8,0-1.5-0.2-2.2-0.5c-1.7-0.8-3.8-1.8-6.2-2.7c0,0-0.1,0-0.1,0c-14.9-6.3-27.2-11.7-36.7-15.9 c-11.6-5.2-22.9-12.1-33.6-20.5c-7.3-5.8-15.5-13.4-24.4-22.6c-5.8-6-11.4-12.6-16.5-19.5c0,0-0.1-0.1-0.1-0.1 c-5.1-7.3-8.7-12.6-10.7-15.6c-3.4-4.8-6.3-8.3-8.7-10.4c-2.9-2.6-6.1-4.3-9.7-5.3c-9.7-2.6-21.1-1.9-34,2.1 c-6.4,2.3-11,3.8-13.6,4.7c-5.2,1.7-8.7,2.2-11.4,1.6c-0.1,0-0.1,0-0.2,0C1,100.7-3.1,98-4.6,90.2c-1-4.9,0.2-11.8,3.9-21.8 c0-0.1,0.1-0.2,0.1-0.3c7.7-17,18.3-28.4,31.4-33.8c11.8-4.9,25.7-5,41.4-0.4c1.7-5.3,4.5-10.5,8.4-15.3c0,0,0,0,0,0 c4.6-5.7,10.4-10.7,17-14.6c6.8-4,14-6.7,21.6-8.1c8-1.4,15.7-1.1,23,0.8c6.4,1.7,11.9,4.3,16.3,7.6c7.9,6.2,8.2,12.4,7.1,16.6 c-1,3.5-3.8,6.7-8.8,9.8c-0.1,0.1-0.2,0.1-0.4,0.2c-5.2,2.7-9.4,4.8-12.4,6.5c0,0,0,0,0,0c-5.1,2.8-9.2,5.7-12.1,8.7 c-3.8,3.8-6.3,8.1-7.7,13c-0.4,1.4-0.7,2.5-0.9,3.6c3.7,2.9,7.7,5.7,11.9,8.5c15.7,10.3,32.2,17.8,49,22.3 c12.2,3.3,25,5.1,37.9,5.6c3.2,0.1,7.2,0.2,12,0.2c5.4-0.2,6.7,0,7.5,0.2c0,0,0.1,0,0.1,0c2.9,0.8,5.5,3.1,7.8,6.9 c2,3.2,3.6,7.2,4.7,11.8c2.8,11,2.7,22.4-0.3,33.8c-3.3,12.2-8.4,23-15.3,31.9c-5,6.5-11.3,12.8-18.9,18.6 c-1.5,1.1-3,2.2-4.5,3.3C214.4,206.5,213.4,206.8,212.3,206.8z M207.7,194.3c1.5,0.6,2.8,1.2,4.1,1.7c0.6-0.5,1.3-0.9,1.9-1.4 c6.8-5.3,12.6-10.9,17-16.7c6-7.9,10.6-17.5,13.5-28.4c2.6-9.7,2.7-19.4,0.3-28.8c0,0,0,0,0,0c-0.9-3.6-2.1-6.6-3.6-9 c0,0,0-0.1-0.1-0.1c-0.9-1.5-1.5-2.2-1.8-2.4c-0.6,0-1.9-0.1-4.8,0c0,0-0.1,0-0.1,0c-4.9,0-9.1-0.1-12.5-0.2 c-13.7-0.5-27.2-2.5-40.1-6c-17.8-4.8-35.3-12.7-51.9-23.6c-5.4-3.6-10.5-7.3-15.2-11c-0.1-0.1-0.2-0.2-0.3-0.3 c-0.1-0.1-0.2-0.1-0.2-0.2c-4.8-4-6.4-5.7-7.1-6.7c-1.7-2.2-1.3-5.3,0.9-7c2.2-1.7,5.3-1.3,7,0.9c0,0.1,0.1,0.1,0.2,0.2 c1.8-6.1,5.2-11.7,9.9-16.4c3.6-3.6,8.4-7,14.3-10.3c3-1.7,7.3-3.9,12.5-6.6c3.8-2.4,4.2-3.7,4.2-3.8c0.2-0.7,0.7-2.7-3.6-6.1 c-3.3-2.5-7.5-4.5-12.7-5.9c0,0,0,0,0,0c-5.8-1.6-12.1-1.8-18.7-0.7c-6.3,1.1-12.5,3.4-18.2,6.8C97,15.9,92.2,20,88.4,24.8 c-3.2,4-5.4,8.2-6.8,12.4c2.1,0.8,4.2,1.7,6.4,2.7c2.5,1.1,3.6,4.1,2.5,6.6c-1.1,2.5-4.1,3.6-6.6,2.5c-3.4-1.6-6.7-2.9-9.9-4 c0,0,0,0,0,0c-15.4-5.5-28.6-6-39.3-1.5C24,48,15.2,57.6,8.6,72.1C4.8,82.3,4.8,86.6,5.1,88.2c0.4,2.2,1.1,3.4,1.6,3.6 c0.4,0,2-0.1,5.9-1.3c2.6-0.8,7.1-2.4,13.5-4.6c0.1,0,0.1,0,0.2-0.1c14.7-4.6,28-5.3,39.6-2.2c5.2,1.4,9.8,4,13.8,7.6 c3,2.7,6.3,6.7,10.2,12.1c0,0,0,0.1,0.1,0.1c2,3,5.6,8.2,10.7,15.6c4.9,6.6,10.2,12.8,15.6,18.5c8.6,8.9,16.5,16.2,23.5,21.8 c10,7.9,20.6,14.4,31.5,19.2C180.6,182.7,192.9,188,207.7,194.3z M238.9,109.2C238.9,109.2,238.9,109.2,238.9,109.2 S238.9,109.2,238.9,109.2z"></path></g></g>=<g transform="matrix( 2.9166107177734375, 0, 0, 2.9166107177734375, 468.15,1761.65) "><g transform="matrix( 1, 0, 0, 1, 0,0) "><path d="M212.3,206.8c-0.8,0-1.5-0.2-2.2-0.5c-1.7-0.8-3.8-1.8-6.2-2.7h-0.1c-14.9-6.3-27.2-11.7-36.7-15.9 c-11.6-5.2-22.9-12.1-33.6-20.5c-7.3-5.8-15.5-13.4-24.4-22.6c-5.8-6-11.4-12.6-16.5-19.5l-0.1-0.1c-5.1-7.3-8.7-12.6-10.7-15.6 c-3.4-4.8-6.3-8.3-8.7-10.4c-2.9-2.6-6.1-4.3-9.7-5.3c-9.7-2.6-21.1-1.9-34,2.1c-6.4,2.3-11,3.8-13.6,4.7 c-5.2,1.7-8.7,2.2-11.4,1.6c-0.1,0-0.1,0-0.2,0C1,100.7-3.1,98-4.6,90.2c-1-4.9,0.2-11.8,3.9-21.8c0-0.1,0.1-0.2,0.1-0.3 c7.7-17,18.3-28.4,31.4-33.8c11.8-4.9,25.7-5,41.4-0.4c1.7-5.3,4.5-10.5,8.4-15.3l0,0C85.2,12.9,91,7.9,97.6,4 c6.8-4,14-6.7,21.6-8.1c8-1.4,15.7-1.1,23,0.8c6.4,1.7,11.9,4.3,16.3,7.6c7.9,6.2,8.2,12.4,7.1,16.6c-1,3.5-3.8,6.7-8.8,9.8 c-0.1,0.1-0.2,0.1-0.4,0.2c-5.2,2.7-9.4,4.8-12.4,6.5l0,0c-5.1,2.8-9.2,5.7-12.1,8.7c-3.8,3.8-6.3,8.1-7.7,13 c-0.4,1.4-0.7,2.5-0.9,3.6c3.7,2.9,7.7,5.7,11.9,8.5c15.7,10.3,32.2,17.8,49,22.3c12.2,3.3,25,5.1,37.9,5.6 c3.2,0.1,7.2,0.2,12,0.2c5.4-0.2,6.7,0,7.5,0.2h0.1c2.9,0.8,5.5,3.1,7.8,6.9c2,3.2,3.6,7.2,4.7,11.8c2.8,11,2.7,22.4-0.3,33.8 c-3.3,12.2-8.4,23-15.3,31.9c-5,6.5-11.3,12.8-18.9,18.6c-1.5,1.1-3,2.2-4.5,3.3C214.4,206.5,213.4,206.8,212.3,206.8z  M207.7,194.3c1.5,0.6,2.8,1.2,4.1,1.7c0.6-0.5,1.3-0.9,1.9-1.4c6.8-5.3,12.6-10.9,17-16.7c6-7.9,10.6-17.5,13.5-28.4 c2.6-9.7,2.7-19.4,0.3-28.8l0,0c-0.9-3.6-2.1-6.6-3.6-9c0,0,0-0.1-0.1-0.1c-0.9-1.5-1.5-2.2-1.8-2.4c-0.6,0-1.9-0.1-4.8,0h-0.1 c-4.9,0-9.1-0.1-12.5-0.2c-13.7-0.5-27.2-2.5-40.1-6c-17.8-4.8-35.3-12.7-51.9-23.6c-5.4-3.6-10.5-7.3-15.2-11 c-0.1-0.1-0.2-0.2-0.3-0.3c-0.1-0.1-0.2-0.1-0.2-0.2c-4.8-4-6.4-5.7-7.1-6.7c-1.7-2.2-1.3-5.3,0.9-7c2.2-1.7,5.3-1.3,7,0.9 c0,0.1,0.1,0.1,0.2,0.2c1.8-6.1,5.2-11.7,9.9-16.4c3.6-3.6,8.4-7,14.3-10.3c3-1.7,7.3-3.9,12.5-6.6c3.8-2.4,4.2-3.7,4.2-3.8 c0.2-0.7,0.7-2.7-3.6-6.1c-3.3-2.5-7.5-4.5-12.7-5.9l0,0c-5.8-1.6-12.1-1.8-18.7-0.7c-6.3,1.1-12.5,3.4-18.2,6.8 C97,15.9,92.2,20,88.4,24.8c-3.2,4-5.4,8.2-6.8,12.4c2.1,0.8,4.2,1.7,6.4,2.7c2.5,1.1,3.6,4.1,2.5,6.6s-4.1,3.6-6.6,2.5 c-3.4-1.6-6.7-2.9-9.9-4l0,0c-15.4-5.5-28.6-6-39.3-1.5S15.2,57.6,8.6,72.1C4.8,82.3,4.8,86.6,5.1,88.2c0.4,2.2,1.1,3.4,1.6,3.6 c0.4,0,2-0.1,5.9-1.3c2.6-0.8,7.1-2.4,13.5-4.6c0.1,0,0.1,0,0.2-0.1c14.7-4.6,28-5.3,39.6-2.2c5.2,1.4,9.8,4,13.8,7.6 c3,2.7,6.3,6.7,10.2,12.1c0,0,0,0.1,0.1,0.1c2,3,5.6,8.2,10.7,15.6c4.9,6.6,10.2,12.8,15.6,18.5c8.6,8.9,16.5,16.2,23.5,21.8 c10,7.9,20.6,14.4,31.5,19.2C180.6,182.7,192.9,188,207.7,194.3z M238.9,109.2L238.9,109.2L238.9,109.2z"></path></g></g><g transform="matrix(2.9166107177734375, 0, 0, 2.9166107177734375, 1463.45,1961.9)"><g transform="matrix(1, 0, 0, 1, 0, 0)"><path fill="#707070" d="M6,171.3c-0.5,6.9-0.5,13.1-0.1,18.6c2.6,12.2,6.7,22.6,12.1,31.2c5.5,8.6,11.4,12.6,17.6,11.8
					c6.3-0.7,12.6-4.2,18.9-10.5c6.2-6.3,11.5-13.7,15.8-22.4c0.7-1.3,1.3-2.6,1.9-3.9c3.8-8.9,6.7-17.2,8.7-24.7
					c3.3-18,5.3-35.2,6.1-51.5c0.2-5.5,0.3-9,0.3-10.5l-73.1-5C14.5,121.4,11.8,143.8,6,171.3z"></path><path d="M34.3,238.1c-7.5,0-14.3-4.8-20.3-14.2C8.2,214.8,3.9,203.7,1.1,191c0-0.2-0.1-0.4-0.1-0.6c-0.5-5.7-0.5-12.3,0-19.4
				c0-0.2,0-0.4,0.1-0.7c5.6-27.1,8.4-49.3,8.1-65.9c0-2.8,2.2-5,4.9-5.1c0,0,0,0,0.1,0c2.7,0,5,2.2,5,4.9
				c0.2,17.3-2.6,40.1-8.3,67.8c-0.4,6.4-0.5,12.1,0,17.2c2.5,11.4,6.3,21.3,11.4,29.3c4.3,6.8,8.6,10,12.8,9.5
				c5.1-0.6,10.5-3.7,15.9-9.1c5.8-5.8,10.8-13,14.9-21.1c0,0,0-0.1,0-0.1c0.6-1.2,1.2-2.4,1.7-3.6c3.7-8.6,6.5-16.6,8.4-23.8
				c3.3-17.6,5.3-34.6,5.9-50.7c0.2-5.4,0.3-8.9,0.3-10.4c0.1-2.8,2.3-4.9,5.1-4.9c2.8,0.1,5,2.3,4.9,5.1c0,1.6-0.1,5-0.4,10.6
				c-0.7,16.6-2.8,34.2-6.1,52.3c0,0.1-0.1,0.3-0.1,0.4c-2.1,7.7-5.1,16.3-8.9,25.4c-0.6,1.4-1.3,2.9-2,4.2
				c-4.5,9.1-10.1,17.1-16.7,23.7c-7,7.1-14.4,11.1-21.8,12C35.7,238,35,238.1,34.3,238.1z"></path></g></g><g transform="matrix( 2.9166107177734375, 0, 0, 2.9166107177734375, 1463.45,1961.9)"><g transform="matrix( 1, 0, 0, 1, 0,0) "><path d="M34.3,238.1c-7.5,0-14.3-4.8-20.3-14.2C8.2,214.8,3.9,203.7,1.1,191c0-0.2-0.1-0.4-0.1-0.6c-0.5-5.7-0.5-12.3,0-19.4     c0-0.2,0-0.4,0.1-0.7c5.6-27.1,8.4-49.3,8.1-65.9c0-2.8,2.2-5,4.9-5.1c2.8,0,5,2.2,5.1,4.9c0.2,17.3-2.6,40.1-8.3,67.8     c-0.4,6.4-0.5,12.1,0,17.2c2.5,11.4,6.3,21.3,11.4,29.3c4.3,6.8,8.6,10,12.8,9.5c5.1-0.6,10.5-3.7,15.9-9.1     c5.8-5.8,10.8-13,14.9-21.1v-0.1c0.6-1.2,1.2-2.4,1.7-3.6c3.7-8.6,6.5-16.6,8.4-23.8c3.3-17.6,5.3-34.6,5.9-50.7     c0.2-5.4,0.3-8.9,0.3-10.4c0.1-2.7,2.3-4.9,5-4.9h0.1c2.8,0.1,5,2.3,4.9,5.1c0,1.6-0.1,5-0.4,10.6c-0.7,16.6-2.8,34.2-6.1,52.3     c0,0.1-0.1,0.3-0.1,0.4c-2.1,7.7-5.1,16.3-8.9,25.4c-0.6,1.4-1.3,2.9-2,4.2c-4.5,9.1-10.1,17.1-16.7,23.7     c-7,7.1-14.4,11.1-21.8,12C35.7,238,35,238.1,34.3,238.1z"></path></g></g><g transform="matrix(2.9166107177734375, 0, 0, 2.9166107177734375, 1181.8,460.1)"><g transform="matrix(1, 0, 0, 1, 0, 0)"><path fill="#707070" d="M-52.8,174.8c-8.8,2.5-18.1,5.6-28.1,9.5c-24,9.4-47.4,21.1-70,35.1c-23.6,14.6-42.5,29.4-56.6,44.4      c-15.5,16.5-23.2,31.3-23.2,44.5c0,8.5,2.9,14.8,8.7,18.9c4.9,3.5,12.1,5.6,21.8,6.2c6.2,0.4,15.6,0.3,28.2-0.4      c13.5-0.7,22.9-1,28.3-0.8c21.2,1,42.3,5.9,63.3,14.8c7.8,3.4,14.7,6.8,20.7,10.4c-1.6-4.8-3.1-9.7-4.5-14.7      c-2.3-10.3-4.6-20.8-6.7-31.4c-5.7-27.9-6-55.4-0.8-82.4C-67.9,209.6-61.6,191.5-52.8,174.8z"></path><path d="M-59.7,362.5c-0.9,0-1.7-0.2-2.5-0.7c-5.8-3.4-12.6-6.8-20.2-10.1c-20.3-8.6-41-13.4-61.5-14.4     c-5.2-0.2-14.6,0.1-27.8,0.8c-13,0.7-22.4,0.8-28.9,0.4c-10.7-0.7-18.7-3.1-24.4-7.2c-7.2-5.1-10.8-12.8-10.8-23     c0-14.6,8.1-30.2,24.6-47.9c14.3-15.3,33.7-30.5,57.6-45.3c22.8-14.2,46.6-26.1,70.8-35.6c10.1-3.9,19.7-7.2,28.6-9.7     c2.7-0.7,5.4,0.8,6.2,3.5c0.7,2.7-0.8,5.4-3.5,6.2c-8.6,2.4-17.9,5.6-27.7,9.4c-23.6,9.2-46.9,20.9-69.2,34.7     c-23.1,14.3-41.8,29-55.5,43.6c-14.5,15.5-21.9,29.3-21.9,41c0,6.8,2.2,11.7,6.6,14.8c0,0,0,0,0,0c4.1,2.9,10.5,4.7,19.2,5.3     c5.9,0.4,15.2,0.3,27.6-0.4c13.8-0.7,23.2-1,28.8-0.8c0,0,0,0,0,0c21.7,1,43.6,6.1,65,15.1c0,0,0,0,0,0c8,3.4,15.1,7,21.3,10.7     c2.4,1.4,3.2,4.5,1.8,6.8C-56.3,361.6-57.9,362.5-59.7,362.5z"></path></g></g><g transform="matrix( 2.9166107177734375, 0, 0, 2.9166107177734375, 1181.8,460.1) "><g transform="matrix( 1, 0, 0, 1, 0,0) "><path d="M-59.7,362.5c-0.9,0-1.7-0.2-2.5-0.7c-5.8-3.4-12.6-6.8-20.2-10.1c-20.3-8.6-41-13.4-61.5-14.4 c-5.2-0.2-14.6,0.1-27.8,0.8c-13,0.7-22.4,0.8-28.9,0.4c-10.7-0.7-18.7-3.1-24.4-7.2c-7.2-5.1-10.8-12.8-10.8-23 c0-14.6,8.1-30.2,24.6-47.9c14.3-15.3,33.7-30.5,57.6-45.3c22.8-14.2,46.6-26.1,70.8-35.6c10.1-3.9,19.7-7.2,28.6-9.7 c2.7-0.7,5.4,0.8,6.2,3.5c0.7,2.7-0.8,5.4-3.5,6.2c-8.6,2.4-17.9,5.6-27.7,9.4c-23.6,9.2-46.9,20.9-69.2,34.7 c-23.1,14.3-41.8,29-55.5,43.6c-14.5,15.5-21.9,29.3-21.9,41c0,6.8,2.2,11.7,6.6,14.8l0,0c4.1,2.9,10.5,4.7,19.2,5.3 c5.9,0.4,15.2,0.3,27.6-0.4c13.8-0.7,23.2-1,28.8-0.8l0,0c21.7,1,43.6,6.1,65,15.1l0,0c8,3.4,15.1,7,21.3,10.7 c2.4,1.4,3.2,4.5,1.8,6.8C-56.3,361.6-57.9,362.5-59.7,362.5z"></path></g></g><g transform="matrix(2.9166107177734375, 0, 0, 2.9166107177734375, 956.5,1516.1)"><g transform="matrix(1, 0, 0, 1, 0, 0)"><path fill="#707070" d="M156.9,0.3c-0.5,0-1-0.1-1.5-0.1c0.3,0,0.5,0.1,0.8,0.1C156.5,0.3,156.7,0.3,156.9,0.3L156.9,0.3L156.9,0.3 M155.4,0.2H155c-0.3,0-0.7,0-1,0c0.7,0.1,1.5,0.1,2.2,0.1C156,0.2,155.7,0.2,155.4,0.2 M209,15.8c-1.3-0.7-2.7-1.3-4.1-2      c-15-7.2-31.1-11.7-48.1-13.4h-0.1c-0.2,0-0.4-0.1-0.7-0.1c-0.7,0-1.5-0.1-2.2-0.1l-2.6,0c-0.2,0-0.4,0-0.6,0h-1.4      c-0.3,0-0.7,0-1,0H145c-0.3,0-0.7,0-1.1,0c0,0-0.1,0-0.1,0h-1.2c-0.4,0-0.8,0-1.1,0c-1.1,0-2.1,0.1-3.2,0.1c-0.3,0-0.6,0-0.9,0      c-0.1,0-0.2,0-0.3,0c-13.3,1.3-26,4.3-38.2,8.9c-3.6,1.4-7.1,2.9-10.6,4.6C44.2,34.9,16.9,69,6.4,115.9      c-3.5,24-5.6,47.3-6.4,70.2c-0.4,22.1,3.9,40.8,13,56c18.4,30.8,56.3,47.6,113.6,50.2c2.7,0.1,5.4,0.2,8.2,0.3      c0.5,0,1.1,0,1.6,0l5.4,0.1c0.3,0,0.7,0,1.1,0h0.9c0.1,0,0.1,0,0.1,0h1.1c0.3,0,0.5,0,0.8,0h2.9c0.2,0,0.4,0,0.5,0      c0,0,0.1,0,0.2,0c0.6,0,1.3,0,1.9,0l5.4-0.1c0.5,0,1.1,0,1.6,0c2.4-0.1,4.8-0.1,7.1-0.2l20.4-1.6l19.2-3      c0.9-0.2,1.8-0.3,2.6-0.5c6.9-1.5,13.4-3.3,19.4-5.4c24.4-8.4,42-21.7,52.9-39.8c9.1-15.2,13.5-33.9,13.1-56      c-0.8-22.8-2.9-46.2-6.4-70.2C276.7,70.4,250.7,37,209,15.8z"></path><path d="M151.4,297.8h-9.5c0,0-0.1,0-0.1,0l-5.4-0.1h-1.6c0,0-0.1,0-0.1,0c-2.8-0.1-5.6-0.2-8.3-0.3c-29.2-1.4-53.8-6.4-73.2-15 c-19.8-8.8-34.8-21.5-44.5-37.7C-0.7,228.7-5.4,209-4.9,186c0,0,0-0.1,0-0.1c0.8-22.9,2.9-46.7,6.4-70.7c0-0.1,0-0.2,0.1-0.4 C7,90.7,16.8,69.6,30.9,52C45,34.5,63.6,20.1,86.2,9.2c3.6-1.7,7.3-3.3,11-4.7c12.5-4.8,25.7-7.9,39.4-9.2c0,0,0.1,0,0.1,0l0.3,0 c0.3,0,0.6,0,0.8-0.1c0.1,0,0.2,0,0.3,0l3-0.1c0.4,0,0.9-0.1,1.4-0.1h8.2c0.3,0,0.7,0,1,0.1l2.4,0.1c0.1,0,0.1,0,0.2,0 c0.3,0,0.7,0,1,0l0.4,0c0,0,0.1,0,0.1,0c0,0,0.1,0,0.1,0c0.3,0,0.6,0.1,0.9,0.1c0,0,0,0,0,0c0.2,0,0.5,0.1,0.7,0.1 c17.5,1.8,34.2,6.4,49.7,13.9c1.4,0.7,2.8,1.4,4.2,2.1c21.4,10.9,39,25.2,52.4,42.4c13.4,17.2,22.8,37.8,28,61.1 c0,0.1,0.1,0.2,0.1,0.4c3.5,24,5.7,47.8,6.4,70.7c0,0,0,0.1,0,0.1c0.4,23-4.2,42.7-13.8,58.7c-11.4,19.2-30.1,33.3-55.6,42 c-6.2,2.1-13,4-20,5.5c-0.9,0.2-1.8,0.4-2.6,0.5c-0.1,0-0.1,0-0.2,0l-19.2,3c-0.1,0-0.3,0-0.4,0l-20.3,1.6c-0.1,0-0.2,0-0.2,0 c-2.4,0.1-4.8,0.1-7.2,0.2c0,0-0.1,0-0.1,0h-1.6L151.4,297.8C151.5,297.8,151.5,297.8,151.4,297.8z M141.9,287.8h9.5l5.4-0.1 c0,0,0.1,0,0.1,0h1.5c2.3-0.1,4.7-0.1,7-0.2l20-1.6l19-3c0.8-0.2,1.6-0.3,2.4-0.5c6.6-1.4,13-3.2,18.8-5.2 c23.2-7.9,40.1-20.6,50.3-37.7c8.6-14.4,12.7-32.3,12.4-53.4c-0.8-22.4-2.9-45.8-6.3-69.4c-4.9-21.8-13.7-41-26.1-57 c-12.5-16-29-29.4-49-39.6c-1.3-0.7-2.6-1.3-4-2c-14.4-6.9-30-11.3-46.3-12.9c-0.1,0-0.3,0-0.4,0c-0.1,0-0.3,0-0.4-0.1 c-0.7,0-1.3-0.1-2-0.1L151.2,5c-0.2,0-0.4,0-0.6,0h-8c-0.2,0-0.4,0-0.6,0c-0.1,0-0.2,0-0.3,0l-3.1,0.1c-0.2,0-0.5,0-0.8,0.1 l-0.3,0c-12.8,1.2-25.1,4.1-36.8,8.6c-3.5,1.3-6.9,2.8-10.3,4.4c-21.3,10.2-38.7,23.7-51.8,40c-13.1,16.3-22.3,36-27.3,58.6 c-3.4,23.6-5.6,46.9-6.3,69.4c-0.4,21.1,3.8,39,12.3,53.4c8.6,14.4,22.1,25.8,39.9,33.7c18.3,8.1,41.7,12.9,69.6,14.2 c2.6,0.1,5.3,0.2,8,0.3h1.5c0,0,0.1,0,0.1,0L141.9,287.8z"></path></g></g><g transform="matrix(2.9166107177734375, 0, 0, 2.9166107177734375, 956.5,1516.1)"><g transform="matrix(1, 0, 0, 1, 0, 0)"><g fill="#D5D2EA"><path d="M209,15.8c-1.3-0.7-2.7-1.3-4.1-2c-15-7.2-31.1-11.7-48.1-13.4h-0.1c-0.2,0-0.4-0.1-0.7-0.1 c-0.7,0-1.5-0.1-2.2-0.1l-2.6,0c-0.2,0-0.4,0-0.6,0h-1.4c-0.3,0-0.7,0-1,0H145c-0.3,0-0.7,0-1.1,0c0,0-0.1,0-0.1,0h-1.2 c-0.4,0-0.8,0-1.1,0c-1.1,0-2.1,0.1-3.2,0.1v0c-0.3,0-0.6,0-0.9,0l-0.3,0c-13.3,1.3-26,4.3-38.2,8.9 c53,77.4,62.2,171.9,27.7,283.2c2.7,0.1,5.4,0.2,8.2,0.3c0.5,0,1.1,0,1.6,0l5.4,0.1c0.3,0,0.7,0,1.1,0h0.9c0.1,0,0.1,0,0.1,0 h1.1c0.3,0,0.5,0,0.8,0h2.9c0.2,0,0.4,0,0.5,0c0,0,0.1,0,0.2,0c0.6,0,1.3,0,1.9,0l5.4-0.1c0.5,0,1.1,0,1.6,0 c2.4-0.1,4.8-0.1,7.1-0.2l20.4-1.6l19.2-3c0.9-0.2,1.8-0.3,2.6-0.5c6.9-1.5,13.4-3.3,19.4-5.4C273.6,209.4,267.5,120.7,209,15.8 z"></path></g><path d="M151.4,297.8h-9.5c0,0-0.1,0-0.1,0l-5.4-0.1h-1.6c0,0-0.1,0-0.1,0c-2.8-0.1-5.6-0.2-8.3-0.3c-29.2-1.4-53.8-6.4-73.2-15 c-19.8-8.8-34.8-21.5-44.5-37.7C-0.7,228.7-5.4,209-4.9,186c0,0,0-0.1,0-0.1c0.8-22.9,2.9-46.7,6.4-70.7c0-0.1,0-0.2,0.1-0.4 C7,90.7,16.8,69.6,30.9,52C45,34.5,63.6,20.1,86.2,9.2c3.6-1.7,7.3-3.3,11-4.7c12.5-4.8,25.7-7.9,39.4-9.2c0,0,0.1,0,0.1,0l0.3,0 c0.3,0,0.5,0,0.8-0.1c0.1,0,0.2,0,0.3,0l3-0.1c0.4,0,0.9-0.1,1.4-0.1h8.2c0.3,0,0.7,0,1,0.1l2.4,0.1c0.1,0,0.1,0,0.2,0 c0.3,0,0.6,0,1,0c0.5,0,1,0.1,1.5,0.1c0,0,0,0,0,0c0.2,0,0.4,0.1,0.7,0.1c17.5,1.8,34.2,6.4,49.7,13.9c1.4,0.7,2.8,1.4,4.2,2.1 c21.4,10.9,39,25.2,52.4,42.4c13.4,17.2,22.8,37.8,28,61.1c0,0.1,0.1,0.2,0.1,0.4c3.5,24,5.7,47.8,6.4,70.7c0,0,0,0.1,0,0.1 c0.4,23-4.2,42.7-13.8,58.7c-11.4,19.2-30.1,33.3-55.6,42c-6.2,2.1-13,4-20,5.5c-0.9,0.2-1.8,0.4-2.6,0.5c-0.1,0-0.1,0-0.2,0 l-19.2,3c-0.1,0-0.3,0-0.4,0l-20.3,1.6c-0.1,0-0.2,0-0.2,0c-2.4,0.1-4.8,0.1-7.2,0.2c0,0-0.1,0-0.1,0h-1.6L151.4,297.8 C151.5,297.8,151.5,297.8,151.4,297.8z M141.9,287.8h9.5l5.4-0.1c0,0,0.1,0,0.1,0h1.5c2.3-0.1,4.7-0.1,7-0.2l20-1.6l19-3 c0.8-0.2,1.6-0.3,2.4-0.5c6.6-1.4,13-3.2,18.8-5.2c23.2-7.9,40.1-20.6,50.3-37.7c8.6-14.4,12.7-32.3,12.4-53.4 c-0.8-22.4-2.9-45.8-6.3-69.4c-4.9-21.8-13.7-41-26.1-57c-12.5-16-29-29.4-49-39.6c-1.3-0.7-2.6-1.3-4-2 c-14.4-6.9-30-11.3-46.3-12.9c-0.1,0-0.3,0-0.4,0c-0.1,0-0.3,0-0.4-0.1c-0.7,0-1.3-0.1-2-0.1L151.2,5c-0.2,0-0.4,0-0.6,0h-8 c-0.2,0-0.4,0-0.6,0c-0.1,0-0.2,0-0.3,0l-3.1,0.1c-0.2,0-0.5,0-0.8,0.1l-0.3,0c-12.8,1.2-25.1,4.1-36.8,8.6 c-3.5,1.3-6.9,2.8-10.3,4.4c-21.3,10.2-38.7,23.7-51.8,40c-13.1,16.3-22.3,36-27.3,58.6c-3.4,23.6-5.6,46.9-6.3,69.4 c-0.4,21.1,3.8,39,12.3,53.4c8.6,14.4,22.1,25.8,39.9,33.7c18.3,8.1,41.7,12.9,69.6,14.2c2.6,0.1,5.3,0.2,8,0.3h1.5 c0,0,0.1,0,0.1,0L141.9,287.8z"></path></g></g><g transform="matrix(2.9166107177734375, 0, 0, 2.9166107177734375, 1042.6,1961.9)"><g transform="matrix(1, 0, 0, 1, 0, 0)"><path fill="#707070" d="M6,171.3c-0.5,6.9-0.5,13.1-0.1,18.6c2.6,12.2,6.7,22.6,12.1,31.2c5.5,8.6,11.4,12.6,17.6,11.8 c6.3-0.7,12.6-4.2,18.9-10.5c6.2-6.3,11.5-13.7,15.8-22.4c0.7-1.3,1.3-2.6,1.9-3.9c3.8-8.9,6.7-17.2,8.7-24.7 c3.3-18,5.3-35.2,6.1-51.5c0.2-5.5,0.3-9,0.3-10.5l-73.1-5C14.5,121.4,11.8,143.8,6,171.3z"></path><path d="M34.3,238.1c-7.5,0-14.3-4.8-20.3-14.2C8.2,214.8,3.9,203.7,1.1,191c0-0.2-0.1-0.4-0.1-0.6c-0.5-5.7-0.5-12.3,0-19.4 c0-0.2,0-0.4,0.1-0.7c5.6-27.1,8.4-49.3,8.1-65.9c0-2.8,2.2-5,4.9-5.1c2.8,0,5,2.2,5.1,4.9c0.2,17.3-2.6,40.1-8.3,67.8 c-0.4,6.4-0.5,12.1,0,17.2c2.5,11.4,6.3,21.3,11.4,29.3c4.3,6.8,8.6,10,12.8,9.5c5.1-0.6,10.5-3.7,15.9-9.1 c5.8-5.8,10.8-13,14.9-21.1c0,0,0-0.1,0-0.1c0.6-1.2,1.2-2.4,1.7-3.6c3.7-8.6,6.5-16.6,8.4-23.8c3.3-17.6,5.3-34.6,5.9-50.7 c0.2-5.4,0.3-8.9,0.3-10.4c0.1-2.7,2.3-4.9,5-4.9c0,0,0.1,0,0.1,0c2.8,0.1,5,2.3,4.9,5.1c0,1.6-0.1,5-0.4,10.6 c-0.7,16.6-2.8,34.2-6.1,52.3c0,0.1-0.1,0.3-0.1,0.4c-2.1,7.7-5.1,16.3-8.9,25.4c-0.6,1.4-1.3,2.9-2,4.2 c-4.5,9.1-10.1,17.1-16.7,23.7c-7,7.1-14.4,11.1-21.8,12C35.7,238,35,238.1,34.3,238.1z"></path></g></g><g transform="matrix( 2.9166107177734375, 0, 0, 2.9166107177734375, 1042.6,1961.9) "><g transform="matrix( 1, 0, 0, 1, 0,0) "><path d="M34.3,238.1c-7.5,0-14.3-4.8-20.3-14.2C8.2,214.8,3.9,203.7,1.1,191c0-0.2-0.1-0.4-0.1-0.6c-0.5-5.7-0.5-12.3,0-19.4     c0-0.2,0-0.4,0.1-0.7c5.6-27.1,8.4-49.3,8.1-65.9c0-2.8,2.2-5,4.9-5.1c2.8,0,5,2.2,5.1,4.9c0.2,17.3-2.6,40.1-8.3,67.8     c-0.4,6.4-0.5,12.1,0,17.2c2.5,11.4,6.3,21.3,11.4,29.3c4.3,6.8,8.6,10,12.8,9.5c5.1-0.6,10.5-3.7,15.9-9.1     c5.8-5.8,10.8-13,14.9-21.1v-0.1c0.6-1.2,1.2-2.4,1.7-3.6c3.7-8.6,6.5-16.6,8.4-23.8c3.3-17.6,5.3-34.6,5.9-50.7     c0.2-5.4,0.3-8.9,0.3-10.4c0.1-2.7,2.3-4.9,5-4.9h0.1c2.8,0.1,5,2.3,4.9,5.1c0,1.6-0.1,5-0.4,10.6c-0.7,16.6-2.8,34.2-6.1,52.3     c0,0.1-0.1,0.3-0.1,0.4c-2.1,7.7-5.1,16.3-8.9,25.4c-0.6,1.4-1.3,2.9-2,4.2c-4.5,9.1-10.1,17.1-16.7,23.7     c-7,7.1-14.4,11.1-21.8,12C35.7,238,35,238.1,34.3,238.1z"></path></g></g><g transform="matrix(2.9166107177734375, 0, 0, 2.9166107177734375, 1002.9,1719.3)"><g transform="matrix(1, 0, 0, 1, 0, 0)"><path fill="#707070" d="M15.6,43.5c-6,16-10,32.3-12.1,49.1c-0.7,5.4-1.3,10.8-1.9,16.1c-0.9,6.2,0.5,13.1,4.2,20.7 c3.4,6,8,12,13.5,17.8c5.6,5.9,10.8,8.9,15.5,8.9c4.8,0,10-2.7,15.8-8.1c5.4-5,9.4-9.5,11.9-13.5c4-6.2,6.3-12.2,7-18.1 c1.2-14,3.8-28.1,7.7-42.3c3.9-14.2,12.5-29.8,25.9-46.8L49.7,0C33.7,10.8,22.4,25.3,15.6,43.5z"></path><path d="M34.8,161.1c-6.2,0-12.5-3.4-19.1-10.4C9.8,144.5,5,138.2,1.4,131.8c-0.1-0.1-0.1-0.2-0.1-0.3 c-4.2-8.5-5.7-16.4-4.7-23.5c0.6-5.3,1.2-10.8,1.9-16.1c2.2-17.1,6.4-34,12.4-50.2c7.1-19,19.2-34.5,36-45.8 c2.3-1.5,5.4-0.9,6.9,1.3c1.5,2.3,0.9,5.4-1.3,6.9c-15,10.2-25.9,24-32.3,41.1c-5.8,15.5-9.8,31.7-11.9,48 c-0.7,5.3-1.3,10.8-1.9,16.1c0,0.1,0,0.1,0,0.2c-0.8,5.1,0.5,11,3.7,17.6c3.2,5.6,7.5,11.2,12.8,16.8c4.5,4.8,8.6,7.3,11.9,7.3 c0,0,0,0,0,0c3.4,0,7.7-2.3,12.4-6.7c5-4.7,8.8-8.9,11.2-12.6c3.5-5.5,5.7-10.9,6.3-15.9c1.3-14.2,3.9-28.7,7.8-43.1 c4-14.8,13-31.2,26.8-48.6c1.7-2.2,4.9-2.5,7-0.8c2.2,1.7,2.5,4.9,0.8,7c-12.9,16.4-21.3,31.6-25,45.1 c-3.8,13.9-6.3,27.9-7.5,41.5c0,0.1,0,0.1,0,0.2c-0.8,6.6-3.4,13.4-7.8,20.2c-2.9,4.4-7,9.2-12.8,14.5 C47.3,158,41,161,34.8,161.1C34.8,161,34.8,161.1,34.8,161.1z"></path></g></g><g transform="matrix(2.9166107177734375, 0, 0, 2.9166107177734375, 1002.9,1719.3)"><g transform="matrix( 1, 0, 0, 1, 0,0) "><path d="M34.8,161.1c-6.2,0-12.5-3.4-19.1-10.4C9.8,144.5,5,138.2,1.4,131.8c-0.1-0.1-0.1-0.2-0.1-0.3 c-4.2-8.5-5.7-16.4-4.7-23.5c0.6-5.3,1.2-10.8,1.9-16.1c2.2-17.1,6.4-34,12.4-50.2c7.1-19,19.2-34.5,36-45.8 c2.3-1.5,5.4-0.9,6.9,1.3c1.5,2.3,0.9,5.4-1.3,6.9c-15,10.2-25.9,24-32.3,41.1c-5.8,15.5-9.8,31.7-11.9,48 c-0.7,5.3-1.3,10.8-1.9,16.1c0,0.1,0,0.1,0,0.2c-0.8,5.1,0.5,11,3.7,17.6c3.2,5.6,7.5,11.2,12.8,16.8c4.5,4.8,8.6,7.3,11.9,7.3 c0,0,0,0,0,0c3.4,0,7.7-2.3,12.4-6.7c5-4.7,8.8-8.9,11.2-12.6c3.5-5.5,5.7-10.9,6.3-15.9c1.3-14.2,3.9-28.7,7.8-43.1 c4-14.8,13-31.2,26.8-48.6c1.7-2.2,4.9-2.5,7-0.8c2.2,1.7,2.5,4.9,0.8,7c-12.9,16.4-21.3,31.6-25,45.1 c-3.8,13.9-6.3,27.9-7.5,41.5c0,0.1,0,0.1,0,0.2c-0.8,6.6-3.4,13.4-7.8,20.2c-2.9,4.4-7,9.2-12.8,14.5 C47.3,158,41,161,34.8,161.1C34.8,161,34.8,161.1,34.8,161.1z"></path></g></g><g transform="matrix(2.9166107177734375, 0, 0, 2.9166107177734375, 848.15,585.65)"><g transform="matrix(1, 0, 0, 1, 0, 0)"><path fill="#707070" d="M496.9,137.5L496.9,137.5c-4-4.2-8.4-8-13.1-11.3c-16.3-11.4-34.2-19.6-53.8-24.5c-4.8-1.9-10-4-15.4-6.4 c-14.6-6.5-29.4-14.1-44.1-22.8c-3.6-2.1-8.3-5.4-14.1-9.8c-7.4-6.5-15.2-12.6-23.2-18.2c-14.9-10.4-30.9-19.2-47.9-26.5 c-7.8-3.3-15.6-6.1-23.5-8.6c-22.1-6.8-44.9-10.3-68.4-10.6c-30.4-0.4-60.3,3.4-89.4,11.5c-9.2,3.1-18.1,7.3-26.7,12.4 C58.3,34.1,42.4,49.4,29.5,68.5C16.6,87.7,7.8,109.2,3.3,132.8c-1.7,8.8-2.8,17.6-3.2,26.4c-0.8,16,0.5,32.2,3.8,48.6 c2,9.6,4,19,6.1,28.4C32.4,315.9,78.9,363.2,149.6,378c41.3,8.6,90.9,6.2,148.7-7.3l4.2-1.2c33-6.6,64.5-17.2,94.7-31.6 c6.5-3.2,13.1-6.3,19.7-9.4c17.5-9,33.6-20.3,48.1-33.9c12.7-11.8,24-24.8,34-39c12.5-18.6,19.6-37.1,21.2-55.6 c0.3-2.8,0.4-5.6,0.4-8.4c0-4.7-0.5-9.3-1.4-13.8c0-0.1,0-0.1,0-0.1c-2-9.8-6.2-19.1-12.5-28.2c-0.1-0.2-0.2-0.3-0.3-0.5 C503.7,145.1,500.5,141.3,496.9,137.5z"></path><path d="M201.8,388c-19,0-36.9-1.7-53.3-5.2c-36.2-7.6-66.6-23.7-90.4-48c-23.7-24.1-41.5-56.9-52.8-97.3c0-0.1,0-0.2-0.1-0.2 c-2.1-9.4-4.2-19-6.2-28.5c-3.4-16.7-4.7-33.4-3.9-49.8c0.4-9.1,1.5-18.2,3.3-27.2C3,107.7,12.1,85.4,25.4,65.8 c13.2-19.7,29.8-35.6,49.3-47.3c0,0,0,0,0,0c8.8-5.3,18.1-9.6,27.6-12.8c0.1,0,0.2-0.1,0.3-0.1c29.5-8.2,60.1-12.1,90.9-11.7 c23.9,0.3,47.4,4,69.8,10.9c8.1,2.5,16.1,5.4,24,8.7c17.2,7.3,33.6,16.4,48.8,27c8.1,5.6,16,11.8,23.5,18.4 c5.5,4.2,10.1,7.4,13.5,9.4c14.6,8.5,29.2,16.1,43.7,22.5c5.2,2.3,10.3,4.4,14.9,6.2c20,5,38.5,13.5,55.2,25.1 c5,3.5,9.6,7.5,13.8,11.9l0,0c0,0,0.1,0.1,0.1,0.1c3.7,3.9,7.1,7.9,9.9,12c0.1,0.2,0.3,0.4,0.4,0.6c6.7,9.5,11.2,19.6,13.3,30 c0,0.1,0,0.2,0.1,0.3c1,4.8,1.5,9.7,1.5,14.7c0,3-0.1,6-0.4,8.9c-1.7,19.2-9.2,38.7-22.1,57.9c0,0,0,0.1-0.1,0.1 c-10.1,14.5-21.8,27.8-34.7,39.8c-14.8,13.8-31.4,25.5-49.3,34.7c-0.1,0-0.1,0.1-0.2,0.1c-6.6,3.1-13.2,6.2-19.6,9.4c0,0,0,0,0,0 c-30.4,14.6-62.6,25.3-95.7,32l-4.1,1.1c0,0-0.1,0-0.1,0c-29.1,6.8-56.5,10.8-81.4,12.1C212.5,387.9,207.1,388,201.8,388z  M15,235c10.9,38.8,27.8,70,50.3,92.9c11.2,11.4,24.1,21,38.2,28.4c14.2,7.5,30,13.1,47.2,16.7c20.1,4.2,42.6,5.7,66.9,4.5 c24.3-1.2,51.1-5.2,79.6-11.8l4.2-1.1c0.1,0,0.2,0,0.3-0.1c32.4-6.5,63.9-17.1,93.5-31.3c6.5-3.2,13.1-6.3,19.7-9.4 c17-8.8,32.8-19.9,47-33.1c12.4-11.5,23.6-24.3,33.3-38.2c12-17.8,18.8-35.6,20.4-53.1c0.2-2.7,0.4-5.4,0.4-8 c0-4.3-0.4-8.6-1.3-12.8c0-0.1,0-0.2,0-0.2c-1.9-9-5.8-17.8-11.7-26.2c-0.1-0.1-0.1-0.2-0.2-0.3c0-0.1-0.1-0.1-0.1-0.2 c-2.6-3.7-5.6-7.3-9-10.9l0,0c0,0-0.1-0.1-0.1-0.1c-3.7-3.9-7.9-7.5-12.3-10.7c-15.7-11-33.2-19-52.1-23.7 c-0.2-0.1-0.4-0.1-0.6-0.2c-4.9-1.9-10.2-4.1-15.7-6.5c-14.7-6.6-29.8-14.3-44.6-23c-3.8-2.3-8.6-5.6-14.6-10.1 c-0.1-0.1-0.2-0.1-0.3-0.2c-7.3-6.4-14.9-12.4-22.8-17.8c-14.6-10.2-30.4-18.9-46.9-26c-7.6-3.2-15.3-6-23.1-8.4 c-21.5-6.6-44.1-10.1-67-10.5c-29.8-0.4-59.3,3.4-87.9,11.3c-8.8,3-17.4,7-25.6,11.9C61.6,38,46.1,52.9,33.6,71.3 c-12.5,18.5-21,39.5-25.4,62.4c-1.6,8.5-2.7,17.2-3.1,25.8c-0.8,15.5,0.5,31.4,3.7,47.3C10.8,216.2,12.9,225.7,15,235z"></path></g></g><g transform="matrix(2.9166107177734375, 0, 0, 2.9166107177734375, 848.15,585.65)"><g transform="matrix(1, 0, 0, 1, 0, 0)"><g fill="#D5D2EA"><path d="M416.9,328.4c17.5-9,33.6-20.3,48.1-33.9c12.7-11.8,24-24.8,34-39c12.5-18.6,19.6-37.1,21.2-55.6 c-28.9-7-57.3-10.3-85.2-10.1c-27.9,0.2-63.4,5.4-106.3,15.4c-42.9,10-76.8,20.6-101.6,31.8c-24.9,11.2-49.2,25-72.9,41.5 c-23.7,16.5-35.8,32.4-36.3,47.8c-0.5,15.4,3,27.3,10.6,35.8c4.7,5.3,11.7,10.5,21,15.9c41.3,8.6,90.9,6.2,148.7-7.3l4.2-1.2 c33-6.6,64.5-17.2,94.7-31.6C403.8,334.7,410.3,331.5,416.9,328.4z"></path></g><path d="M201.8,388c-19,0-36.9-1.7-53.3-5.2c-36.2-7.6-66.6-23.7-90.4-48c-23.7-24.1-41.5-56.9-52.8-97.3c0-0.1,0-0.2-0.1-0.2     c-2.1-9.4-4.2-19-6.2-28.5c-3.4-16.7-4.7-33.4-3.9-49.8c0.4-9.1,1.5-18.2,3.3-27.2C3,107.7,12.1,85.4,25.4,65.8     c13.2-19.7,29.8-35.6,49.3-47.3c0,0,0,0,0,0c8.8-5.3,18.1-9.6,27.6-12.8c0.1,0,0.2-0.1,0.3-0.1c29.5-8.2,60.1-12.1,90.9-11.7     c23.9,0.3,47.4,4,69.8,10.9c8.1,2.5,16.1,5.4,24,8.7c17.2,7.3,33.6,16.4,48.8,27c8.1,5.6,16,11.8,23.5,18.4     c5.5,4.2,10.1,7.4,13.5,9.4c14.6,8.5,29.2,16.1,43.7,22.5c5.2,2.3,10.3,4.4,14.9,6.2c20,5,38.5,13.5,55.2,25.1     c5,3.5,9.6,7.5,13.8,11.9l0,0c0,0,0.1,0.1,0.1,0.1c3.7,3.9,7.1,7.9,9.9,12c0.1,0.2,0.3,0.4,0.4,0.6c6.7,9.5,11.2,19.6,13.3,30     c0,0.1,0,0.2,0.1,0.3c1,4.8,1.5,9.7,1.5,14.7c0,3-0.1,6-0.4,8.9c-1.7,19.2-9.2,38.7-22.1,57.9c0,0,0,0.1-0.1,0.1     c-10.1,14.5-21.8,27.8-34.7,39.8c-14.8,13.8-31.4,25.5-49.3,34.7c-0.1,0-0.1,0.1-0.2,0.1c-6.6,3.1-13.2,6.2-19.6,9.4c0,0,0,0,0,0     c-30.4,14.6-62.6,25.3-95.7,32l-4.1,1.1c0,0-0.1,0-0.1,0c-29.1,6.8-56.5,10.8-81.4,12.1C212.5,387.9,207.1,388,201.8,388z      M15,235c10.9,38.8,27.8,70,50.3,92.9c11.2,11.4,24.1,21,38.2,28.4c14.2,7.5,30,13.1,47.2,16.7c20.1,4.2,42.6,5.7,66.9,4.5     c24.3-1.2,51.1-5.2,79.6-11.8l4.2-1.1c0.1,0,0.2,0,0.3-0.1c32.4-6.5,63.9-17.1,93.5-31.3c6.5-3.2,13.1-6.3,19.7-9.4     c17-8.8,32.8-19.9,47-33.1c12.4-11.5,23.6-24.3,33.3-38.2c12-17.8,18.8-35.6,20.4-53.1c0.2-2.7,0.4-5.4,0.4-8     c0-4.3-0.4-8.6-1.3-12.8c0-0.1,0-0.2,0-0.2c-1.9-9-5.8-17.8-11.7-26.2c-0.1-0.1-0.1-0.2-0.2-0.3c0-0.1-0.1-0.1-0.1-0.2     c-2.6-3.7-5.6-7.3-9-10.9l0,0c0,0-0.1-0.1-0.1-0.1c-3.7-3.9-7.9-7.5-12.3-10.7c-15.7-11-33.2-19-52.1-23.7     c-0.2-0.1-0.4-0.1-0.6-0.2c-4.9-1.9-10.2-4.1-15.7-6.5c-14.7-6.6-29.8-14.3-44.6-23c-3.8-2.3-8.6-5.6-14.6-10.1     c-0.1-0.1-0.2-0.1-0.3-0.2c-7.3-6.4-14.9-12.4-22.8-17.8c-14.6-10.2-30.4-18.9-46.9-26c-7.6-3.2-15.3-6-23.1-8.4     c-21.5-6.6-44.1-10.1-67-10.5c-29.8-0.4-59.3,3.4-87.9,11.3c-8.8,3-17.4,7-25.6,11.9C61.6,38,46.1,52.9,33.6,71.3     c-12.5,18.5-21,39.5-25.4,62.4c-1.6,8.5-2.7,17.2-3.1,25.8c-0.8,15.5,0.5,31.4,3.7,47.3C10.8,216.2,12.9,225.7,15,235z"></path></g></g><svg width="3000" height="3000" viewBox="0 0 3000 3000" fill="none" xmlns="http://www.w3.org/2000/svg"><path d="M1196.37 1165.43C1174.33 1169.75 1156.29 1176.26 1142.01 1185.3C1127.73 1194.34 1121.41 1203.02 1123.04 1211.32C1124.66 1219.61 1133.8 1225.25 1150.43 1228.23C1167.06 1231.21 1186.23 1230.43 1208.26 1226.11C1230.02 1221.84 1248.06 1215.33 1262.33 1206.29C1276.67 1197.53 1283.28 1188.81 1281.59 1180.22C1279.91 1171.63 1270.83 1166.28 1253.92 1163.36C1237.57 1160.32 1218.4 1161.11 1196.37 1165.43ZM1687.43 1100.63C1685.8 1092.33 1676.67 1086.69 1660.04 1083.71C1643.4 1080.74 1624.24 1081.52 1602.2 1085.84C1580.16 1090.17 1562.12 1096.68 1547.85 1105.72C1533.57 1114.76 1527.25 1123.43 1528.87 1131.73C1530.5 1140.03 1539.63 1145.67 1556.26 1148.65C1572.9 1151.63 1592.06 1150.84 1614.1 1146.52C1635.85 1142.25 1653.89 1135.74 1668.46 1126.65C1682.73 1117.6 1689.06 1108.93 1687.43 1100.63Z" fill="#CF80A6"></path><path d="M1226.18 994.633C1221.85 972.595 1213.06 955.003 1199.2 941.967C1185.01 928.701 1170.33 923.555 1154.88 926.586C1139.14 929.673 1127.49 939.982 1119.64 957.57C1111.17 974.984 1109.38 994.653 1113.7 1016.69C1117.52 1036.15 1125.12 1052.2 1136.85 1065.05C1165.45 1050.23 1194.07 1044.62 1222.72 1048.22C1229.01 1031.82 1229.99 1014.09 1226.18 994.633ZM1184.17 954.723C1188.35 954.796 1192.06 957.04 1195.24 961.17C1198.43 965.301 1200.01 970.34 1200.51 975.89C1200.72 981.496 1199.5 985.896 1196.68 989.718C1193.81 993.253 1190.26 994.842 1186.08 994.769C1181.9 994.696 1178.2 992.451 1175.29 988.265C1172.11 984.135 1170.52 979.095 1170.09 973.831C1169.88 968.225 1171.04 963.539 1173.91 960.004C1176.67 955.896 1180.23 954.308 1184.17 954.723ZM1628.5 968.342C1634.56 952.292 1635.83 934.508 1632.01 915.046C1627.69 893.008 1618.6 875.471 1604.75 862.435C1590.85 849.113 1575.88 844.024 1560.43 847.055C1544.68 850.142 1533.03 860.451 1525.19 878.039C1517 895.396 1515.27 915.352 1519.59 937.39C1523.41 956.852 1531.01 972.896 1542.69 985.466C1569.07 968.405 1597.69 962.792 1628.5 968.342ZM1581.07 908.392C1577.89 904.261 1576.3 899.222 1575.87 893.958C1575.66 888.352 1576.82 883.666 1579.69 880.13C1582.57 876.595 1586.06 874.72 1590.01 875.135C1594.18 875.208 1597.89 877.453 1601.08 881.583C1604.27 885.713 1605.85 890.753 1606.34 896.303C1606.55 901.909 1605.33 906.309 1602.52 910.131C1599.64 913.666 1596.09 915.254 1591.92 915.182C1587.68 914.823 1584.26 912.522 1581.07 908.392Z" fill="black"></path><path d="M1195.53 961.115C1192.34 956.984 1188.63 954.74 1184.46 954.667C1180.51 954.252 1177.02 956.126 1174.14 959.662C1171.33 963.484 1169.82 967.939 1170.32 973.489C1170.81 979.04 1172.34 983.793 1175.52 987.923C1178.71 992.053 1182.42 994.298 1186.31 994.427C1190.49 994.5 1194.04 992.911 1196.91 989.376C1199.73 985.554 1200.95 981.154 1200.74 975.548C1200.3 970.284 1198.43 965.301 1195.53 961.115ZM1575.87 893.958C1576.36 899.508 1577.89 904.262 1581.07 908.392C1584.26 912.522 1587.97 914.767 1591.86 914.896C1596.03 914.969 1599.59 913.38 1602.46 909.845C1605.28 906.023 1606.49 901.623 1606.29 896.017C1605.79 890.467 1604.21 885.428 1601.02 881.297C1597.84 877.167 1594.13 874.922 1589.95 874.85C1586.01 874.434 1582.51 876.309 1579.64 879.844C1576.82 883.666 1575.37 888.408 1575.87 893.958Z" fill="white"></path><path d="M1137.03 1079.58C1133.14 1079.45 1129.26 1077.84 1126.29 1074.85C1112.74 1060.27 1103.71 1041.53 1099.39 1019.5C1094.51 994.597 1096.82 971.555 1105.99 951.627C1115.91 929.471 1131.46 916.317 1152.07 912.275C1172.39 908.291 1191.76 914.598 1209.31 931.365C1225.38 946.64 1235.89 966.871 1240.77 991.771C1245.15 1014.09 1243.82 1034.57 1236.77 1053.19C1234.46 1059.58 1228.04 1063.22 1221.35 1062.45C1196.02 1059.1 1169.98 1064.2 1144.13 1077.89C1141.66 1078.97 1139.38 1079.42 1137.03 1079.58ZM1163.52 940.346C1161.4 940.166 1159.4 940.559 1157.68 940.896C1157.68 940.896 1157.68 940.896 1157.4 940.952C1143.09 943.758 1136.41 955.173 1132.66 963.338C1125.74 978.07 1124.48 994.366 1128.24 1013.54C1130.77 1026.42 1134.96 1037.19 1141.21 1046.37C1164.71 1035.81 1188.75 1031.1 1212.42 1032.1C1214.75 1021.24 1214.62 1009.98 1212.1 997.097C1208.34 977.921 1201.01 963.308 1189.33 952.225C1178.55 942.747 1170.04 940.256 1163.52 940.346ZM1542.58 1000.05C1538.69 999.922 1534.81 998.306 1531.84 995.32C1518.28 980.741 1509.26 962.004 1504.94 939.966C1500.06 915.066 1502.37 892.024 1511.54 872.096C1521.46 849.94 1537.01 836.785 1557.39 833.087C1577.71 829.102 1597.08 835.409 1614.63 852.177C1630.7 867.452 1641.21 887.682 1646.09 912.582C1650.47 934.906 1649.14 955.378 1642.09 973.998C1639.49 980.452 1632.84 984.431 1625.75 983.146C1598.32 978.124 1573.7 982.951 1550.48 997.907C1548.07 999.271 1545.5 999.776 1542.58 1000.05ZM1569.36 860.758C1566.95 860.635 1564.95 861.028 1563.23 861.365C1563.23 861.365 1563.23 861.365 1562.95 861.421C1548.64 864.227 1541.96 875.642 1538.21 883.807C1531.29 898.538 1530.03 914.835 1533.79 934.011C1536.26 946.604 1540.39 957.087 1546.31 966.032C1568.72 954.504 1593.05 949.734 1618.15 951.944C1620.25 941.427 1620.12 930.159 1617.65 917.566C1613.89 898.39 1606.56 883.777 1594.88 872.694C1584.39 863.16 1575.88 860.668 1569.36 860.758Z" fill="black"></path><path d="M2142.47 1181.51C2142.14 1179.8 2141.86 1178.37 2141.58 1176.93L1694.72 1264.05C1695 1265.48 1695.33 1267.19 1695.61 1268.63C1702.7 1304.98 1718.85 1336 1743.72 1361.46C1756.36 1374.45 1771.11 1386.14 1788.23 1396.17C1839.33 1426.62 1896.08 1435.76 1957.91 1423.71C2019.75 1411.66 2068.63 1381.92 2104.6 1334.79C2116.69 1319.07 2126.27 1302.64 2133.1 1285.86C2146.59 1252.92 2149.62 1218.16 2142.47 1181.51ZM2070.98 1285.78C2093.32 1278.46 2115.21 1270.33 2136.94 1261.34C2115.56 1270.56 2093.32 1278.46 2070.98 1285.78C2027.44 1300.21 1983.05 1311.84 1937.71 1320.08C1892.66 1328.27 1846.81 1333.94 1800.07 1336.51C1846.81 1333.94 1892.71 1328.56 1937.71 1320.08C1983.05 1311.84 2027.44 1300.21 2070.98 1285.78Z" fill="white"></path><path d="M1906.51 1443.54C1861.95 1443.61 1819.57 1431.96 1780.95 1409.18C1762.82 1398.45 1746.69 1385.85 1733.32 1372.11C1706.57 1344.64 1689 1310.92 1681.36 1271.7L1680.41 1266.84C1678.84 1258.82 1683.91 1251.29 1691.93 1249.73L2139.08 1162.57C2147.09 1161 2154.62 1166.07 2156.18 1174.09L2157.13 1178.96C2164.77 1218.17 2161.16 1256.02 2146.68 1291.53C2139.16 1309.34 2128.95 1327.08 2116.17 1343.83C2078.01 1393.47 2025.69 1425.36 1960.42 1438.08C1942.1 1441.65 1924.01 1443.39 1906.51 1443.54ZM1755.03 1352.43C1766.53 1364.15 1780.15 1374.57 1795.61 1383.74C1819.45 1397.81 1845.03 1407.09 1871.43 1411.45C1897.84 1415.81 1925.92 1415.09 1955.12 1409.4C1984.04 1403.76 2010.34 1393.88 2033.17 1379.92C2056.01 1365.96 2075.94 1347.81 2092.75 1325.81C2102.94 1312.54 2111.24 1298.73 2117.43 1284.75C2103.62 1290.12 2089.7 1294.91 2075.72 1299.42C2031.61 1313.96 1986.08 1325.81 1940.16 1334.17C1894.82 1342.41 1847.77 1348.02 1800.74 1350.65C1785.52 1351.83 1770.48 1352.39 1755.03 1352.43ZM1711.82 1275.57C1716.71 1294.53 1724.29 1312.06 1734.45 1327.62C1737.21 1325 1740.76 1323.41 1744.65 1323.55C1762.78 1323.58 1781.09 1322.98 1799.05 1322.15C1844.94 1319.75 1890.5 1314.13 1934.98 1306.06C1979.41 1297.69 2023.56 1286.41 2066.53 1272.09C2087.5 1265.33 2108.3 1257.71 2128.64 1249.29C2131.99 1231.4 2132.54 1212.87 2129.77 1194.09L1711.82 1275.57Z" fill="black"></path></svg><svg xmlns="http://www.w3.org/2000/svg" width="3000" height="3000" fill="none"><path fill="#F0DA5C" d="M1213.67 506.181c-13.12 9.917-25.95 19.542-39.08 29.166-15.75 11.375-31.79 22.458-47.83 33.25-.29.291-.58.291-.58.583-119 80.499-241.208 142.331-366.622 185.205l11.083 69.415c14.583 25.083 43.458 31.5 86.332 19.25 132.706-51.332 256.957-122.206 372.747-213.204 25.37-19.833 50.16-40.541 74.66-62.124 26.83-28.291 30.04-54.249 9.33-77.582-13.12-11.083-26.25-22.166-39.08-32.666-20.12 16.625-40.54 32.958-60.96 48.707Zm0 0 14.59-53.665-60.67 25.957-58.33-38.79 5.54 69.123-53.08 39.374 62.41 16.333 2.63 3.5c16.04-10.791 32.08-21.874 47.83-33.249 13.13-9.041 25.96-18.666 39.08-28.583Zm-584.484 16.333 31.791-26.249-28.583-29.166 18.083-69.707-60.957 28.582-22.167-12.249-42.291 98.581 34.125 6.125 18.083 46.374 26.833-21.874 11.374-19.542 13.709-.875Zm313.827-205.621 5.541 67.082 50.458-50.165 69.708 17.791-28.88-60.957 5.25-9.333c-30.62-21.292-60.661-40.833-90.119-58.624l-7 37.624-61.249 24.5 56.291 32.082ZM806.807 207.229l-65.624 9.916-45.207-51.916c-.292 0-.583.584-1.167 1.167l-12.25 66.207-44.915 17.792c-1.75 3.791-3.209 7.583-4.667 11.374l-.583 1.167 44.916 25.958 5.249 66.79 51.041-49.582 69.416 17.791-28.875-60.957 32.666-55.707Zm91.873 305.369-16.333-62.416-39.374 52.791-69.999-4.375 39.375 57.166-26.25 60.374 62.707-16.917 51.041 43.749.583-71.457 61.541-36.457-63.291-22.458Z"></path><path fill="#495F5F" d="M691.306 771.884c-12.249 11.375-24.208 22.75-35.291 34.125-81.081 81.957-110.831 141.455-89.248 178.496 21.583 37.335 88.082 41.415 199.496 12.25 15.458-4.083 31.208-8.458 46.958-13.708 98.873-30.916 206.789-80.207 324.039-147.58 56.29-32.375 107.62-65.332 154.58-98.29 66.2-46.666 123.08-94.207 170.62-142.331 41.71-41.999 69.71-78.457 84.29-108.789 13.41-28.583 15.16-51.916 4.96-69.707-10.5-18.083-31.5-28.291-63-30.916-33.54-2.334-79.04 3.791-136.21 18.666-32.96 8.75-67.08 19.541-102.08 32.374 8.46 6.708 16.63 13.417 24.5 20.417 12.83 10.499 25.96 21.582 39.08 32.666 20.42 23.332 17.5 49.29-9.33 77.581-24.5 21.583-49.29 42.291-74.67 62.124-115.79 90.998-240.033 161.872-372.739 213.204-43.165 12.25-71.748 5.834-86.331-19.249l-11.083-69.416-5.542-35.582c-22.458 18.083-43.457 35.874-62.999 53.665ZM559.184 518.431l-34.125-6.125-9.916 22.75c-.875 2.333-3.208 7.291-6.708 15.458-3.5 8.166-4.958 16.041-4.958 23.916.291 20.708 9.916 27.999 28.291 21.583 1.166-.583 2.625-1.167 4.083-1.75 10.5-5.833 20.708-12.542 30.041-20.125l11.666-9.625-18.374-46.082Zm123.372-285.828 12.25-66.207c-22.458 18.375-41.707 46.374-57.165 83.998l44.915-17.791Zm58.916-15.458 65.624-9.916-32.958 55.707 28.874 60.957-69.415-17.791-51.041 49.874-5.249-66.791-44.916-25.957-65.041 150.497 21.875 12.541 60.957-28.583-18.083 69.707 28.583 29.166 48.416-40.249 44.624 262.203 5.541 35.583c125.415-42.874 247.617-104.706 366.617-185.205l-1.75-4.083-62.41-16.333 53.08-39.374-5.54-69.124 58.33 38.791 60.66-25.958-14.58 53.666c20.42-15.75 40.83-32.083 60.96-48.707-8.17-7-16.33-14-24.5-20.417-9.92-8.166-19.83-16.333-29.75-24.208-34.71-27.999-68.83-54.249-102.37-78.748-24.5-18.375-48.71-35.583-72.63-52.207l-5.25 9.333 28.88 60.957-69.71-17.791-50.749 49.29-5.541-67.082-56.291-32.083 61.249-24.499 7.292-37.333c-49.291-30.624-96.54-56.582-141.748-78.165-46.374-12.25-85.456-5.25-117.539 20.416l45.499 51.916Zm140.872 233.037 16.625 62.416 63.29 22.749-61.832 36.166-.583 71.457-51.041-43.749-62.707 17.208 26.25-60.374-39.375-57.165 69.999 4.375 39.374-53.083Z"></path><path fill="#000" d="M645.225 1030.59c-46.374 0-76.415-12.84-91.29-38.501-25.374-44.041 4.667-108.207 91.582-196.288 11.374-11.375 23.332-23.042 35.874-34.708 17.791-16.333 36.749-32.666 56.582-48.416l-38.791-228.954-28.874 23.916-31.791 25.958-24.791 20.417-26.833 21.874-11.375 9.625c-10.208 8.167-21 15.458-32.374 21.583-.875.583-1.75.875-2.625 1.167-1.167.291-1.75.583-2.042.583l-1.75.875c-13.708 4.666-25.083 4.083-33.833-2.042-9.041-6.416-13.708-17.499-13.999-32.957-.292-9.917 1.75-19.833 5.833-29.75v-.292c3.5-8.166 5.833-13.416 6.708-15.458l10.208-23.041 42.291-98.581 65.04-150.497s0-.292.292-.292c0-.292.292-.292.292-.583l.291-.292c1.459-3.792 2.917-7.583 4.667-11.375 15.166-37.624 34.708-66.79 57.457-86.623 1.75-3.5 4.667-6.125 8.458-7.583.292 0 .584-.292.875-.292 35-25.666 77.291-32.374 125.998-19.541l2.625.875c45.499 21.874 93.623 48.415 143.206 79.04a2070.95 2070.95 0 0 1 90.994 59.207c23.92 16.333 48.42 34.124 72.92 52.207 33.54 24.5 67.96 51.041 102.96 79.332 7.58 6.125 15.45 12.542 23.33 18.958 32.66-11.958 64.75-21.874 95.66-30.041 59.5-15.458 105.58-21.583 141.17-18.958 36.45 2.917 61.54 15.75 74.37 38.208 12.54 22.166 11.08 50.165-4.37 83.415-15.46 32.374-43.75 69.123-87.21 112.873-47.83 48.415-106.17 96.831-172.66 143.789-46.96 33.249-99.46 66.498-155.75 98.873-117.54 67.665-227.497 117.831-326.953 149.038-16.042 4.962-32.083 9.622-47.541 13.712-50.166 13.12-91.582 19.54-124.831 19.54Zm98.29-284.663c-14.875 12.249-28.875 24.499-42.291 36.749-11.958 11.083-23.916 22.458-34.708 33.541-94.206 95.081-99.456 139.997-87.206 160.997 17.499 30.336 80.79 32.086 183.163 5.25 15.166-4.084 30.624-8.458 46.374-13.417 97.415-30.624 205.333-79.915 321.123-146.414 55.41-32.082 107.04-65.04 153.41-97.706 65.33-46.082 122.21-93.332 168.87-140.581 40.25-40.832 67.67-76.123 81.37-104.706 11.38-23.916 13.13-42.874 5.55-56.291-7.88-13.416-25.09-21.582-51.34-23.624-31.79-2.333-76.12 3.792-131.54 18.375-24.79 6.416-50.74 14.291-76.7 23.332 1.75 1.459 3.5 2.917 4.96 4.375 12.83 10.5 25.95 21.583 39.08 32.666.58.584 1.17.875 1.46 1.459 13.12 14.874 18.66 31.207 16.62 48.415-2.04 16.042-10.79 32.375-26.25 49l-.87.874c-24.5 21.875-49.88 42.875-75.25 62.708-116.37 91.29-242.955 163.913-376.536 215.245-.292.292-.875.292-1.167.292-24.207 6.708-44.04 8.167-60.957 4.375-18.374-4.083-32.666-14.291-41.999-30.333-.875-1.458-1.458-3.208-1.75-4.958l-11.666-68.54v-.584l-1.75-10.499Zm40.832 72.915c5.25 8.166 19.833 23.916 67.957 10.5 130.664-50.749 254.616-121.623 368.366-210.871 24.79-19.542 49.58-39.958 73.5-61.249 26.54-28.291 19.25-45.208 9.33-56.582-9.62-8.167-19.25-16.333-28.87-24.208-17.21 14.291-34.71 27.999-52.21 41.416-13.12 9.916-26.25 19.541-39.08 29.166-16.04 11.666-32.08 22.749-48.12 33.541-.3 0-.3.291-.59.291-115.79 78.457-236.535 139.998-358.449 183.164l8.166 54.832ZM768.306 716.76l2.917 18.084c118.122-42 234.497-101.79 346.787-177.914h.29c.29-.291.29-.291.58-.291 15.75-10.5 31.79-21.583 47.25-32.958 12.83-9.333 25.67-19.25 38.79-28.875 15.75-12.249 31.5-24.791 47.25-37.332-3.5-2.917-7.29-6.125-11.08-8.75l-.29-.292c-9.92-8.166-19.54-16.333-29.46-23.916-34.42-27.708-68.83-54.249-101.79-78.457-24.21-18.083-48.42-35.582-72.04-51.624-30.33-20.999-60.375-40.541-89.541-58.332-48.416-30.624-95.373-56.291-139.414-77.582-41.124-10.5-74.957-4.666-103.248 17.792l-.292.291-.291.292-.875.875c-20.416 16.625-38.208 43.166-52.791 78.165v.292c-1.458 3.5-2.916 7.291-4.375 10.791-.291.583-.291.875-.583 1.458l-.292.875-65.04 150.206-42.583 98.581-9.916 22.75c-.875 2.042-3.208 7.291-6.708 15.458-2.625 6.416-4.084 12.25-3.792 18.083v.292c0 6.124 1.167 8.749 1.458 9.333.875 0 2.917 0 6.709-1.167 1.166-.583 2.333-1.167 3.791-1.458 9.333-5.25 18.375-11.083 26.541-18.083l11.375-9.625 24.791-20.416 9.917-17.208c2.333-4.375 7-7 11.958-7.292l9.041-.583 28-23.041 41.707-34.416-4.375-24.208c-1.458-7.875 3.792-15.458 11.667-16.917 7.875-1.458 15.458 3.792 16.916 11.667l5.833 32.666v.292l44.625 261.911c.583 0 .583.292.583.583Z"></path></svg><svg viewBox="0 0 3000 3000"><path fill-rule="evenodd" clip-rule="evenodd" d="M2727.8,2633.6L2727.8,2633.6c9.4,11.9,15,27,15,43.3c0,16.4-5.8,31.9-15.4,43.8l-0.8,1l-0.2-1.3  c-0.2-1.1-0.4-2.2-0.7-3.4c-4.8-21.4-20.5-39.8-46.4-54.6c-17.5-10-27.5-22.1-30.1-35.8c-1.7-8.9-0.4-17.8,2-25.4  c2.4-7.6,6.1-14,9.1-17.8l10.1-12.4c1.8-2.2,5.1-2.2,6.8,0L2727.8,2633.6L2727.8,2633.6z M2743.7,2621.2L2743.7,2621.2l-67.4-83.3  c-1.3-1.6-3.7-1.6-5,0l-67.4,83.3v0l-0.2,0.3c-12.4,15.6-19.8,35.3-19.8,56.8c0,50.1,40.3,90.7,90,90.7s90-40.6,90-90.7  c0-21.5-7.4-41.3-19.8-56.8L2743.7,2621.2L2743.7,2621.2z M2619.9,2633.4l6-7.5l0.2,1.4c0.2,1.1,0.3,2.2,0.5,3.3  c3.9,20.7,17.9,37.9,41.2,51.3c20.3,11.6,32.1,25,35.5,39.7c1.4,6.1,1.7,12.2,1.1,17.4l0,0.3l-0.3,0.1c-9.1,4.5-19.4,7.1-30.3,7.1  c-38.1,0-69-31.2-69-69.6C2604.7,2660.4,2610.4,2645.3,2619.9,2633.4L2619.9,2633.4z"></path></svg></svg>